<?xml version="1.0" encoding="UTF-8"?><svg id="a" xmlns="http://www.w3.org/2000/svg" viewBox="0 0 1400 350"><defs><style>.b{fill:#fff;}.c{fill:#2563eb;}</style></defs><g><path class="b" d="M435.08,264.33c-8.06-5.01-14.31-12.01-18.78-21-4.46-9-6.69-19.37-6.69-31.1v-48.82c0-11.73,2.23-22.14,6.69-31.21,4.46-9.07,10.8-16.08,19.01-21,8.22-4.93,17.72-7.39,28.51-7.39h24.88c10.17,0,19.13,2.19,26.87,6.57,7.74,4.38,13.77,10.56,18.07,18.54,4.31,7.98,6.46,17.13,6.46,27.46h-16.9c0-11.11-3.17-20.07-9.5-26.88-6.33-6.8-14.67-10.21-24.99-10.21h-24.88c-11.11,0-20.03,4.03-26.75,12.08-6.73,8.06-10.09,18.74-10.09,32.04v48.82c0,13.3,3.29,23.98,9.86,32.04,6.57,8.06,15.25,12.09,26.05,12.09h25.34c10.64,0,19.21-3.76,25.7-11.27,6.49-7.51,9.74-17.37,9.74-29.57h16.9c0,11.11-2.19,20.93-6.57,29.45-4.39,8.54-10.53,15.14-18.43,19.83-7.9,4.7-17.02,7.04-27.35,7.04h-25.34c-10.48,0-19.75-2.5-27.81-7.51Z"/><path class="b" d="M581.41,265.97c-2.66-2.66-3.99-6.42-3.99-11.27V105.68h17.37V254.47h89.19v15.49h-91.3c-4.85,0-8.6-1.33-11.27-3.99Z"/><path class="b" d="M719.41,105.68h17.37v164.28h-17.37V105.68Z"/><path class="b" d="M956.68,265.86c-7.2-4-12.79-9.63-16.78-16.9-3.99-7.28-5.98-15.69-5.98-25.23h16.9c0,9.7,2.85,17.57,8.56,23.59,5.71,6.02,13.26,9.04,22.65,9.04h26.05c9.23,0,16.66-2.08,22.3-6.22,5.63-4.14,8.45-9.58,8.45-16.31v-15.02c0-5.32-2.07-9.86-6.22-13.62-4.15-3.76-9.82-6.18-17.02-7.27l-42.24-7.04c-11.9-2.04-21.13-6.26-27.7-12.68-6.57-6.41-9.86-14.47-9.86-24.17v-12.67c0-11.42,4.26-20.54,12.79-27.35,8.53-6.81,19.83-10.21,33.91-10.21h26.53c13.29,0,24.01,4.03,32.15,12.08,8.13,8.06,12.2,18.66,12.2,31.8h-16.9c0-8.6-2.5-15.49-7.51-20.65-5.01-5.17-11.66-7.74-19.94-7.74h-26.53c-8.91,0-16.04,1.99-21.35,5.98-5.32,3.99-7.98,9.35-7.98,16.08v12.67c0,5.48,1.99,10.1,5.98,13.85,3.99,3.76,9.5,6.26,16.55,7.51l42.01,7.27c12.21,2.19,21.67,6.38,28.4,12.56,6.73,6.18,10.1,14.04,10.1,23.59v15.02c0,11.42-4.39,20.61-13.14,27.57-8.77,6.97-20.27,10.45-34.5,10.45h-26.99c-9.39,0-17.68-1.99-24.88-5.98Z"/><path class="b" d="M1232.92,115.06c-2.35-6.26-6.1-9.39-11.27-9.39h-7.98l-63.14,164.28h17.84l52.81-141.75h.23l52.81,141.75h17.84l-59.15-154.9Z"/><path class="b" d="M893.91,116c-7.43-6.88-17.25-10.32-29.46-10.32h-79.56v164.28h17.37V121.16h61.73c7.19,0,12.94,1.99,17.25,5.98,4.31,3.99,6.46,9.2,6.46,15.61v24.17c0,7.67-2.43,13.81-7.28,18.43-4.86,4.61-11.27,6.93-19.24,6.93h-36.22v15.49h36.69c12.98,0,23.47-3.71,31.45-11.15,7.98-7.43,11.97-17.17,11.97-29.22v-24.17c0-11.27-3.72-20.34-11.15-27.23Z"/><path class="b" d="M1326.55,105.68h17.37v164.28h-17.37V105.68Z"/><polyline class="b" points="1206.4 269.96 1221.27 230.06 1221.33 230.06 1236.2 269.96"/></g><g><polygon class="c" points="56.07 299.63 199.95 50.37 206.34 61.39 200.65 71.21 75.14 288.61 264.34 288.61 270.73 299.63 56.07 299.63"/><polygon class="c" points="295.75 299.63 290.11 289.81 218.32 165.49 212.63 155.68 219.02 144.66 302.32 289.01 308.48 299.63 295.75 299.63"/><polygon class="b" points="331.13 299.63 219.02 105.41 132.24 255.66 245.27 255.66 251.66 266.68 113.12 266.68 212.86 93.99 219.02 83.37 225.12 93.99 343.97 299.63 331.13 299.63"/></g></svg>